<svg id="Layer_1" data-name="Layer 1" xmlns="http://www.w3.org/2000/svg" viewBox="0 0 171.2 625.28"><defs><style>.cls-1{fill:#2e3192;}.cls-2{fill:#00aeef;}.cls-3{fill:#231f20;}</style></defs><path class="cls-1" d="M435.36,415.08a4.77,4.77,0,0,0-.06.76v-.66Z" transform="translate(-435.3 -188.87)"/><path class="cls-1" d="M435.38,416.81c0-.06-.05-.13-.08-.19v-.78A6.45,6.45,0,0,0,435.38,416.81Z" transform="translate(-435.3 -188.87)"/><path class="cls-1" d="M437.63,399.65c-.15-.25-.31-.5-.48-.74a8.51,8.51,0,0,1-.62-1A11.73,11.73,0,0,1,437.63,399.65Z" transform="translate(-435.3 -188.87)"/><path class="cls-1" d="M438.28,409.47c0,.11-.07.21-.1.32a5.32,5.32,0,0,1-.46,1A14.42,14.42,0,0,0,438.28,409.47Z" transform="translate(-435.3 -188.87)"/><path class="cls-1" d="M505.33,447.48a2.55,2.55,0,0,1-.11.74A5.25,5.25,0,0,0,505.33,447.48Z" transform="translate(-435.3 -188.87)"/><path class="cls-1" d="M505.35,447.07v.2a.45.45,0,0,1,0,.11C505.34,447.28,505.35,447.18,505.35,447.07Z" transform="translate(-435.3 -188.87)"/><path class="cls-1" d="M510.87,233.38c-.07-.25-.15-.51-.23-.76l.15.46C510.82,233.18,510.85,233.28,510.87,233.38Z" transform="translate(-435.3 -188.87)"/><path class="cls-1" d="M532,230.14c.44-1.3.91-2.59,1.41-3.86C532.89,227.55,532.42,228.84,532,230.14Z" transform="translate(-435.3 -188.87)"/><path class="cls-1" d="M545,386.53a2.3,2.3,0,0,0,0,.26c0-.57,0-1.13,0-1.7a5.66,5.66,0,0,0-.18-1.63A6.4,6.4,0,0,1,545,386.53Z" transform="translate(-435.3 -188.87)"/><path class="cls-2" d="M438.28,409.47a12.55,12.55,0,0,0-.62-9.77A11,11,0,0,1,438.28,409.47Z" transform="translate(-435.3 -188.87)"/><path class="cls-2" d="M480.13,394.08a43.55,43.55,0,0,1-5.6-.41Q477.32,394,480.13,394.08Z" transform="translate(-435.3 -188.87)"/><path class="cls-2" d="M509.82,230.14c-.44-1.3-.91-2.59-1.41-3.86C508.91,227.55,509.38,228.84,509.82,230.14Z" transform="translate(-435.3 -188.87)"/><path class="cls-2" d="M531.16,232.62c-.08.25-.16.51-.23.76,0-.1.05-.2.08-.3Z" transform="translate(-435.3 -188.87)"/><path class="cls-2" d="M536.46,447.38a.45.45,0,0,1,0-.11v-.2C536.45,447.18,536.46,447.28,536.46,447.38Z" transform="translate(-435.3 -188.87)"/><path class="cls-2" d="M536.58,448.22a2.55,2.55,0,0,1-.11-.74A5.25,5.25,0,0,0,536.58,448.22Z" transform="translate(-435.3 -188.87)"/><path class="cls-2" d="M606.5,415.84v.78c0,.06,0,.13-.08.19A6.45,6.45,0,0,0,606.5,415.84Z" transform="translate(-435.3 -188.87)"/><polygon class="cls-1" points="85.6 625.27 85.25 623.85 84.91 622.4 85.26 623.85 85.6 625.27"/><path class="cls-1" d="M538.14,355.42c0,.17,0,.35,0,.53v-.06C538.1,355.73,538.12,355.58,538.14,355.42Z" transform="translate(-435.3 -188.87)"/><path class="cls-1" d="M567.27,393.67a43.55,43.55,0,0,1-5.6.41C563.54,394,565.41,393.86,567.27,393.67Z" transform="translate(-435.3 -188.87)"/><path class="cls-1" d="M604.08,410.83a5.32,5.32,0,0,1-.46-1c0-.11-.07-.21-.1-.32A14.42,14.42,0,0,0,604.08,410.83Z" transform="translate(-435.3 -188.87)"/><path class="cls-1" d="M606.5,415.18v.66a4.77,4.77,0,0,0-.06-.76Z" transform="translate(-435.3 -188.87)"/><path class="cls-3" d="M606.5,415.84a6.45,6.45,0,0,1-.08,1,7.31,7.31,0,0,1-.25,1,20.78,20.78,0,0,1-2.09,4.42,5.53,5.53,0,0,1-.53.74,5.43,5.43,0,0,1-4,2.24l-.42,0h-.35a8,8,0,0,1-1.28-.08,20.56,20.56,0,0,1-2.45-.53l-7.45-2-.73-.2c-1.94-.53-3.88-1.06-5.83-1.57l-.39-.1c-3-.79-6-1.56-9-2.29-7.69-1.88-15.46-3.5-23.21-5.18l-.55-.1a5.45,5.45,0,0,0-3.46.43l-.31.18a4.89,4.89,0,0,0-2.26,3.82q-.23,4.54-.28,9.1a10.22,10.22,0,0,1-3.49,8.07,4.78,4.78,0,0,0-.45.45,1.33,1.33,0,0,0-.19.24,1.28,1.28,0,0,0-.17.26,2.12,2.12,0,0,0-.28.51,7.33,7.33,0,0,0-.56,2.89c0,1.19,0,2.38-.07,3.57v.5c0,1.28,0,2.57,0,3.86v.21a.45.45,0,0,0,0,.11.38.38,0,0,0,0,.1,2.55,2.55,0,0,0,.11.74,1.1,1.1,0,0,0,.06.26,3.54,3.54,0,0,0,2.19,2.2c1,.4,2,.78,3,1.14l.5.18c.85.3,1.7.6,2.55.88,1.2.41,1.87,1.07,1.58,2.39a32.27,32.27,0,0,1-.77,3.23c-.58,1.82-1.3,3.59-1.86,5.42a5.17,5.17,0,0,0-.24,1.91v0a.13.13,0,0,1,0,.06v0c0,.09,0,.17,0,.26a.06.06,0,0,0,0,0,1.55,1.55,0,0,0,.06.31,3.31,3.31,0,0,0,.12.42c0,.1.07.19.11.29a5.34,5.34,0,0,0,1.37,1.86,3,3,0,0,1,1,2.85c-1.08,9.64-2.19,19.28-3.13,28.93-.06.58-.11,1.17-.16,1.75,0,.08,0,.15,0,.22-.21,2.89-.38,5.8-.52,8.7,0,.14,0,.28,0,.43l-.12,3.13c-.35,9.57-.62,19.15-.9,28.73-.21,7.11-.35,14.22-.56,21.33-.27,9.5-.6,19-.88,28.5-.21,7.1-.35,14.21-.56,21.32-.27,9.5-.6,19-.88,28.5-.2,7.11-.35,14.22-.55,21.32-.28,9.55-.61,19.08-.88,28.63-.14,4.75-.18,9.5-.32,14.25q-.42,14-.9,28c-.2,5.75-.39,11.5-.79,17.23a121.45,121.45,0,0,1-3.67,23.08s0,0,0,.05c-2.26,10-5.33,19.87-8.39,29.71a1.72,1.72,0,0,1-.07.21c-.35,1.26-.71,2.51-1.07,3.77-.14.49-.25,1-.37,1.49l-.35,1.44-.34,1.43-.34-1.43-.35-1.44c-.12-.5-.23-1-.37-1.49-.36-1.26-.72-2.51-1.07-3.77a1.72,1.72,0,0,1-.07-.21c-3.06-9.84-6.13-19.67-8.39-29.71a.09.09,0,0,1,0-.05A121.45,121.45,0,0,1,506.63,753c-.4-5.73-.59-11.48-.79-17.23q-.49-14-.9-28c-.14-4.75-.18-9.5-.32-14.25-.27-9.55-.6-19.08-.88-28.63-.2-7.1-.35-14.21-.55-21.32-.28-9.5-.61-19-.88-28.5-.21-7.11-.35-14.22-.56-21.32-.28-9.5-.61-19-.88-28.5-.21-7.11-.35-14.22-.56-21.33-.28-9.58-.55-19.16-.9-28.73l-.12-3.13c0-.14,0-.29,0-.43-.14-2.9-.31-5.81-.52-8.7a1.5,1.5,0,0,0,0-.22c-.05-.58-.1-1.17-.16-1.75-.94-9.65-2.05-19.29-3.13-28.93a3,3,0,0,1,1-2.85,5.34,5.34,0,0,0,1.37-1.86c0-.1.08-.19.11-.29a3.31,3.31,0,0,0,.12-.42,1.55,1.55,0,0,0,.06-.31s0,0,0,0,0-.17,0-.26v0a.22.22,0,0,0,0-.08,5.17,5.17,0,0,0-.24-1.91c-.56-1.83-1.28-3.6-1.86-5.42a32.27,32.27,0,0,1-.77-3.23c-.29-1.32.38-2,1.58-2.39.85-.28,1.7-.58,2.55-.88l.5-.18c1-.36,2-.74,3-1.14a3.54,3.54,0,0,0,2.19-2.2,1.1,1.1,0,0,0,.06-.26,2.55,2.55,0,0,0,.11-.74.38.38,0,0,1,0-.1.45.45,0,0,0,0-.11v-.2h0c0-1.29,0-2.58,0-3.86v-.5c0-1.19,0-2.38-.07-3.57a7.33,7.33,0,0,0-.56-2.89,2.12,2.12,0,0,0-.28-.51,1.28,1.28,0,0,0-.17-.26,1.33,1.33,0,0,0-.19-.24,4.78,4.78,0,0,0-.45-.45,10.22,10.22,0,0,1-3.49-8.07q-.06-4.56-.28-9.1a4.89,4.89,0,0,0-2.26-3.82,1.92,1.92,0,0,0-.31-.18,5.45,5.45,0,0,0-3.46-.43l-.55.1c-7.75,1.68-15.52,3.3-23.21,5.18-3,.73-6,1.5-8.95,2.29l-.39.1c-2,.51-3.89,1-5.83,1.57l-.73.2-7.45,2a20.56,20.56,0,0,1-2.45.53,8,8,0,0,1-1.28.08h-.35l-.42,0a5.43,5.43,0,0,1-4-2.24,5.53,5.53,0,0,1-.53-.74,20.78,20.78,0,0,1-2.09-4.42,7.31,7.31,0,0,1-.25-1,6.45,6.45,0,0,1-.08-1,4.77,4.77,0,0,1,.06-.76,5.71,5.71,0,0,1,1.51-3.06,6.09,6.09,0,0,0,.85-1.19,5.32,5.32,0,0,0,.46-1c0-.11.07-.21.1-.32a12.55,12.55,0,0,0-.62-9.77l0-.05c-.15-.25-.31-.5-.48-.74a8.51,8.51,0,0,1-.62-1l-.18-.24a3.06,3.06,0,0,1-.7-1.49,12.74,12.74,0,0,1,1.17-7.34,5,5,0,0,1,1.13-1.59,3.39,3.39,0,0,1,.34-.23l.31-.13.18-.05a3.68,3.68,0,0,1,1.25,0h0c.24,0,.5.08.78.14l4.44,1,1,.22c.68.14,1.36.28,2,.44l1.4.29c8.23,1.64,16.44,3.5,24.74,4.78h.07a43.55,43.55,0,0,0,5.6.41c2.57.05,5.15,0,7.71,0,1.22,0,2.44,0,3.65-.05l1.19-.06c.8,0,1.6-.1,2.39-.17a1.89,1.89,0,0,0,1.82-2.11c0-.32,0-.63,0-.95,0-1.31,0-2.63,0-3.94a2.3,2.3,0,0,0,0-.26,6.4,6.4,0,0,1,.18-3.07,4,4,0,0,1,1.75-2.38l0,0a8.5,8.5,0,0,1,1.58-.91,3.94,3.94,0,0,0,.86-.52,2,2,0,0,0,.27-.24l.15-.15a1.48,1.48,0,0,0,.26-.3,4.33,4.33,0,0,0,.82-1.9,80.91,80.91,0,0,0,.95-21.08v-.06c0-.16,0-.31,0-.47l-.06-.54a7.26,7.26,0,0,0-1.76-4.11l-.1-.1A5.77,5.77,0,0,0,501,350l-.07-.06-.09-.06a3.88,3.88,0,0,1-1.8-3,24.24,24.24,0,0,1-.1-3.71,3.23,3.23,0,0,1,1.83-2.79,4.28,4.28,0,0,1,.43-.19,5,5,0,0,1,.55-.16h0l.39-.09.31-.08c1.49-.43,1.85-1.11,1.92-3l0-.72c.09-3.58.19-7.16.28-10.75v-.05c.13-6.36.25-12.71.44-19.06v-.13c0-1,0-1.95-.05-2.92a10.38,10.38,0,0,0-2.22-5.72l-.44-.42a5.09,5.09,0,0,1,.63-8.28,5.66,5.66,0,0,0,1.45-1.23l.15-.2a5.29,5.29,0,0,0,.61-1.12,1.9,1.9,0,0,0,.14-.4,4.75,4.75,0,0,0,.2-1.27c.25-6.71.46-13.41.73-20.11a6.91,6.91,0,0,0-1.45-4.46c-.33-.45-.65-.9-1-1.37a4.79,4.79,0,0,1,.72-6,4.89,4.89,0,0,0,1.19-1.92l.06-.22c0-.13.07-.26.1-.39a6.41,6.41,0,0,0,.09-1.09c0-1.72-.08-3.44-.08-5.16a3,3,0,0,1,1.15-2.81,1.9,1.9,0,0,1,.33-.22l.13-.07a6.43,6.43,0,0,1,.74-.35,5,5,0,0,0,1.82-1.21,1.63,1.63,0,0,0,.17-.2,3.26,3.26,0,0,0,.72-1.7,10.92,10.92,0,0,0-.2-4c0-.1-.05-.2-.08-.3l-.09-.28c-.17-.53-.44-1.39-.62-1.91-.08-.25-.17-.5-.26-.75-.21-.65-.44-1.3-.68-1.94s-.47-1.29-.73-1.92c-.05-.14-.1-.27-.16-.41-.29-.72-.58-1.44-.89-2.16-.74-1.66-1.56-3.29-2.34-4.93-.14-.3-.3-.6-.47-.9a19.63,19.63,0,0,1-2.49-12.06c0-.15,0-.3.05-.44a17.61,17.61,0,0,1,.86-3.75l.09-.26a18.56,18.56,0,0,1,1-2.38c.21-.41.42-.8.66-1.19.11-.19.22-.37.34-.54s.36-.54.56-.8a12.76,12.76,0,0,1,1-1.22l.3-.32a14,14,0,0,1,1.49-1.39,16.87,16.87,0,0,1,2.48-1.73c.25-.15.51-.29.77-.43a18.52,18.52,0,0,1,18.55,0l.78.43a16.87,16.87,0,0,1,2.48,1.73,15.12,15.12,0,0,1,1.49,1.39l.3.32a14.14,14.14,0,0,1,1,1.22c.2.26.39.53.56.8l.32.5c.2.34.4.68.58,1a19.72,19.72,0,0,1,1.08,2.58l.09.26a17.61,17.61,0,0,1,.86,3.75s0,.05,0,.08,0,.24,0,.36a19.63,19.63,0,0,1-2.49,12.06c-.17.3-.32.6-.47.9-.78,1.64-1.6,3.27-2.34,4.93-.31.72-.6,1.44-.89,2.16-.06.14-.11.27-.16.41-.26.63-.5,1.27-.73,1.92s-.47,1.29-.68,1.94c-.09.25-.18.5-.26.75-.18.52-.45,1.38-.62,1.91l-.09.28c0,.1-.06.2-.08.3a10.92,10.92,0,0,0-.2,4,3.26,3.26,0,0,0,.72,1.7,1.63,1.63,0,0,0,.17.2,5,5,0,0,0,1.82,1.21,6.43,6.43,0,0,1,.74.35l.13.07a1.9,1.9,0,0,1,.33.22,3,3,0,0,1,1.15,2.81c0,1.72-.06,3.44-.08,5.16a6.41,6.41,0,0,0,.09,1.09c0,.13.06.26.1.39l.06.22a4.89,4.89,0,0,0,1.19,1.92,4.79,4.79,0,0,1,.72,6c-.31.47-.63.92-1,1.37a6.91,6.91,0,0,0-1.45,4.46c.27,6.7.48,13.4.73,20.11a4.75,4.75,0,0,0,.2,1.27,1.9,1.9,0,0,0,.14.4,5.29,5.29,0,0,0,.61,1.12,1.3,1.3,0,0,0,.15.2,5.66,5.66,0,0,0,1.45,1.23,5.09,5.09,0,0,1,.63,8.28l-.44.42a10.38,10.38,0,0,0-2.22,5.72c0,1-.05,1.94-.05,2.92v.13c.19,6.35.31,12.7.44,19.06v.05c.09,3.59.19,7.17.28,10.75l0,.72c.07,1.88.43,2.56,1.92,3l.31.08.41.09a5,5,0,0,1,.55.16,4.28,4.28,0,0,1,.43.19,3.23,3.23,0,0,1,1.83,2.79,24.24,24.24,0,0,1-.1,3.71,3.88,3.88,0,0,1-1.8,3l-.09.06-.08.06a6.55,6.55,0,0,0-.73.64l-.1.1a7.26,7.26,0,0,0-1.76,4.11l-.06.53h0c0,.16,0,.31,0,.47V356A80.91,80.91,0,0,0,539,377a4.33,4.33,0,0,0,.82,1.9,1.48,1.48,0,0,0,.26.3.54.54,0,0,0,.15.15,2,2,0,0,0,.27.24,3.94,3.94,0,0,0,.86.52,8.5,8.5,0,0,1,1.58.91l0,0a4,4,0,0,1,1.75,2.38,6.4,6.4,0,0,1,.18,3.07,2.3,2.3,0,0,0,0,.26c0,1.31,0,2.63,0,3.94,0,.32,0,.63,0,.95a1.89,1.89,0,0,0,1.82,2.11c.79.07,1.59.12,2.39.17l1.19.06c1.21,0,2.43.06,3.65.05,2.56,0,5.14.06,7.71,0a43.55,43.55,0,0,0,5.6-.41h.07c8.3-1.28,16.51-3.14,24.74-4.78.43-.09.87-.17,1.3-.27l2.09-.45,1-.23,4.44-1c.28-.06.54-.11.78-.14h0a3.68,3.68,0,0,1,1.25,0l.18.05.31.13a3.39,3.39,0,0,1,.34.23,5,5,0,0,1,1.13,1.59,12.74,12.74,0,0,1,1.17,7.34,3.06,3.06,0,0,1-.7,1.49l-.18.24a8.51,8.51,0,0,1-.62,1c-.17.24-.33.49-.48.74l0,.05a12.55,12.55,0,0,0-.62,9.77c0,.11.07.21.1.32a5.32,5.32,0,0,0,.46,1,6.09,6.09,0,0,0,.85,1.19,5.71,5.71,0,0,1,1.51,3.06A4.77,4.77,0,0,1,606.5,415.84Z" transform="translate(-435.3 -188.87)"/><path class="cls-1" d="M435.36,415.08a4.77,4.77,0,0,0-.06.76v-.66Z" transform="translate(-435.3 -188.87)"/><path class="cls-1" d="M438.28,409.47c0,.11-.07.21-.1.32a5.32,5.32,0,0,1-.46,1A14.42,14.42,0,0,0,438.28,409.47Z" transform="translate(-435.3 -188.87)"/><path class="cls-1" d="M480.13,394.08a43.55,43.55,0,0,1-5.6-.41Q477.32,394,480.13,394.08Z" transform="translate(-435.3 -188.87)"/><path class="cls-1" d="M503.71,355.89V356c0-.18,0-.36,0-.53C503.68,355.58,503.7,355.73,503.71,355.89Z" transform="translate(-435.3 -188.87)"/><polygon class="cls-1" points="86.29 622.4 85.95 623.85 85.6 625.27 85.94 623.85 86.29 622.4"/></svg>