<svg id="Layer_1" data-name="Layer 1" xmlns="http://www.w3.org/2000/svg" width="171.2" height="625.275" viewBox="0 0 171.2 625.275">
  <g>
    <path d="M435.36,415.08a4.772,4.772,0,0,0-.06.76v-.66C435.32,415.15,435.34,415.11,435.36,415.08Z" transform="translate(-435.3 -188.875)" fill="#2e3192"/>
    <path d="M435.38,416.81c-.03-.06-.05-.13-.08-.19v-.78A6.451,6.451,0,0,0,435.38,416.81Z" transform="translate(-435.3 -188.875)" fill="#2e3192"/>
    <path d="M437.63,399.65c-.15-.25-.31-.5-.48-.74a8.513,8.513,0,0,1-.62-1A11.734,11.734,0,0,1,437.63,399.65Z" transform="translate(-435.3 -188.875)" fill="#2e3192"/>
    <path d="M438.28,409.47c-.03.11-.07.21-.1.32a5.32,5.32,0,0,1-.46,1.04A14.418,14.418,0,0,0,438.28,409.47Z" transform="translate(-435.3 -188.875)" fill="#2e3192"/>
    <path d="M505.33,447.48a2.546,2.546,0,0,1-.11.74A5.247,5.247,0,0,0,505.33,447.48Z" transform="translate(-435.3 -188.875)" fill="#2e3192"/>
    <path d="M505.35,447.07v.2a.448.448,0,0,1-.01.11C505.34,447.28,505.35,447.18,505.35,447.07Z" transform="translate(-435.3 -188.875)" fill="#2e3192"/>
    <path d="M510.87,233.38c-.07-.25-.15-.51-.23-.76.05.15.1.31.15.46C510.82,233.18,510.85,233.28,510.87,233.38Z" transform="translate(-435.3 -188.875)" fill="#2e3192"/>
    <path d="M531.98,230.142q.66-1.95,1.414-3.865Q532.646,228.194,531.98,230.142Z" transform="translate(-435.3 -188.875)" fill="#2e3192"/>
    <path d="M544.95,386.53a2.3,2.3,0,0,0-.03.26c0-.57.01-1.13.03-1.7a5.663,5.663,0,0,0-.18-1.63A6.4,6.4,0,0,1,544.95,386.53Z" transform="translate(-435.3 -188.875)" fill="#2e3192"/>
  </g>
  <g>
    <path d="M438.28,409.47a12.551,12.551,0,0,0-.62-9.77A10.961,10.961,0,0,1,438.28,409.47Z" transform="translate(-435.3 -188.875)" fill="#00aeef"/>
    <path d="M480.13,394.08a43.553,43.553,0,0,1-5.6-.41Q477.32,393.955,480.13,394.08Z" transform="translate(-435.3 -188.875)" fill="#00aeef"/>
    <path d="M509.82,230.142q-.666-1.947-1.414-3.865Q509.162,228.191,509.82,230.142Z" transform="translate(-435.3 -188.875)" fill="#00aeef"/>
    <path d="M531.16,232.62c-.08.25-.16.51-.23.76.02-.1.05-.2.08-.3C531.06,232.93,531.11,232.77,531.16,232.62Z" transform="translate(-435.3 -188.875)" fill="#00aeef"/>
    <path d="M536.46,447.38a.448.448,0,0,1-.01-.11v-.2C536.45,447.18,536.46,447.28,536.46,447.38Z" transform="translate(-435.3 -188.875)" fill="#00aeef"/>
    <path d="M536.58,448.22a2.546,2.546,0,0,1-.11-.74A5.247,5.247,0,0,0,536.58,448.22Z" transform="translate(-435.3 -188.875)" fill="#00aeef"/>
    <path d="M606.5,415.84v.78c-.03.06-.05.13-.08.19A6.451,6.451,0,0,0,606.5,415.84Z" transform="translate(-435.3 -188.875)" fill="#00aeef"/>
  </g>
  <polygon points="85.6 625.275 85.25 623.845 84.91 622.405 85.26 623.845 85.6 625.275" fill="#2e3192"/>
  <path d="M538.14,355.42c-.02.17-.04.35-.05.53v-.06C538.1,355.73,538.12,355.58,538.14,355.42Z" transform="translate(-435.3 -188.875)" fill="#2e3192"/>
  <path d="M567.27,393.67a43.553,43.553,0,0,1-5.6.41C563.54,394,565.41,393.86,567.27,393.67Z" transform="translate(-435.3 -188.875)" fill="#2e3192"/>
  <path d="M604.08,410.83a5.32,5.32,0,0,1-.46-1.04c-.03-.11-.07-.21-.1-.32A14.418,14.418,0,0,0,604.08,410.83Z" transform="translate(-435.3 -188.875)" fill="#2e3192"/>
  <path d="M606.5,415.18v.66a4.772,4.772,0,0,0-.06-.76C606.46,415.11,606.48,415.15,606.5,415.18Z" transform="translate(-435.3 -188.875)" fill="#2e3192"/>
  <path d="M606.5,415.84a6.451,6.451,0,0,1-.08.97,7.31,7.31,0,0,1-.25,1,20.779,20.779,0,0,1-2.09,4.42,5.534,5.534,0,0,1-.53.74,5.432,5.432,0,0,1-3.96,2.24l-.42.03c-.11.01-.23.01-.35.01a8,8,0,0,1-1.28-.08,20.56,20.56,0,0,1-2.45-.53c-2.48-.67-4.97-1.35-7.45-2.02-.24-.07-.48-.14-.73-.2-1.94-.53-3.88-1.06-5.83-1.57-.13-.03-.26-.07-.39-.1-2.98-.79-5.96-1.56-8.95-2.29-7.69-1.88-15.46-3.5-23.21-5.18-.18-.03-.37-.07-.55-.1a5.445,5.445,0,0,0-3.46.43c-.1.06-.2.12-.31.18a4.886,4.886,0,0,0-2.26,3.82q-.225,4.545-.28,9.1a10.217,10.217,0,0,1-3.49,8.07,4.778,4.778,0,0,0-.45.45,1.33,1.33,0,0,0-.19.24,1.284,1.284,0,0,0-.17.26,2.121,2.121,0,0,0-.28.51,7.335,7.335,0,0,0-.56,2.89c-.04,1.19-.05,2.38-.07,3.57v.5c-.01,1.28-.01,2.57-.01,3.86v.21a.448.448,0,0,0,.01.11.375.375,0,0,0,.01.1,2.546,2.546,0,0,0,.11.74,1.1,1.1,0,0,0,.06.26,3.54,3.54,0,0,0,2.19,2.2c1,.4,2.01.78,3.01,1.14.17.06.34.12.5.18.85.3,1.7.6,2.55.88,1.2.41,1.87,1.07,1.58,2.39a32.272,32.272,0,0,1-.77,3.23c-.58,1.82-1.3,3.59-1.86,5.42a5.173,5.173,0,0,0-.24,1.91v.02a.127.127,0,0,1,.01.06v.04c.01.09.03.17.04.26a.06.06,0,0,0,.01.04,1.547,1.547,0,0,0,.06.31,3.311,3.311,0,0,0,.12.42c.03.1.07.19.11.29a5.338,5.338,0,0,0,1.37,1.86,3,3,0,0,1,1.04,2.85c-1.08,9.64-2.19,19.28-3.13,28.93-.06.58-.11,1.17-.16,1.75-.01.08-.01.15-.02.22-.21,2.89-.38,5.8-.52,8.7,0,.14-.01.28-.02.43-.04,1.04-.08,2.09-.12,3.13-.35,9.57-.62,19.15-.9,28.73-.21,7.11-.35,14.22-.56,21.33-.27,9.5-.6,19-.88,28.5-.21,7.1-.35,14.21-.56,21.32-.27,9.5-.6,19-.88,28.5-.2,7.11-.35,14.22-.55,21.32-.28,9.55-.61,19.08-.88,28.63-.14,4.75-.18,9.5-.32,14.25q-.42,14.01-.9,28.02c-.2,5.75-.39,11.5-.79,17.23a121.45,121.45,0,0,1-3.67,23.08c0,.02-.01.03-.01.05-2.26,10.04-5.33,19.87-8.39,29.71a1.723,1.723,0,0,1-.07.21c-.35,1.26-.71,2.51-1.07,3.77-.14.49-.25.99-.37,1.49l-.35,1.44-.34,1.43-.34-1.43-.35-1.44c-.12-.5-.23-1-.37-1.49-.36-1.26-.72-2.51-1.07-3.77a1.723,1.723,0,0,1-.07-.21c-3.06-9.84-6.13-19.67-8.39-29.71a.09.09,0,0,1-.01-.05,121.45,121.45,0,0,1-3.67-23.08c-.4-5.73-.59-11.48-.79-17.23q-.495-14.01-.9-28.02c-.14-4.75-.18-9.5-.32-14.25-.27-9.55-.6-19.08-.88-28.63-.2-7.1-.35-14.21-.55-21.32-.28-9.5-.61-19-.88-28.5-.21-7.11-.35-14.22-.56-21.32-.28-9.5-.61-19-.88-28.5-.21-7.11-.35-14.22-.56-21.33-.28-9.58-.55-19.16-.9-28.73-.04-1.04-.08-2.09-.12-3.13-.01-.14-.01-.29-.02-.43-.14-2.9-.31-5.81-.52-8.7a1.5,1.5,0,0,0-.02-.22c-.05-.58-.1-1.17-.16-1.75-.94-9.65-2.05-19.29-3.13-28.93a3,3,0,0,1,1.04-2.85,5.338,5.338,0,0,0,1.37-1.86c.04-.1.08-.19.11-.29a3.311,3.311,0,0,0,.12-.42,1.547,1.547,0,0,0,.06-.31c.01-.01.01-.02.01-.04.01-.09.03-.17.04-.26v-.04a.22.22,0,0,0,.01-.08,5.173,5.173,0,0,0-.24-1.91c-.56-1.83-1.28-3.6-1.86-5.42a32.272,32.272,0,0,1-.77-3.23c-.29-1.32.38-1.98,1.58-2.39.85-.28,1.7-.58,2.55-.88.16-.05.33-.11.5-.18,1-.36,2.01-.74,3.01-1.14a3.54,3.54,0,0,0,2.19-2.2,1.1,1.1,0,0,0,.06-.26,2.546,2.546,0,0,0,.11-.74.375.375,0,0,1,.01-.1.448.448,0,0,0,.01-.11v-.21c0-1.29,0-2.58-.01-3.86v-.5c-.02-1.19-.03-2.38-.07-3.57a7.335,7.335,0,0,0-.56-2.89,2.121,2.121,0,0,0-.28-.51,1.284,1.284,0,0,0-.17-.26,1.33,1.33,0,0,0-.19-.24,4.778,4.778,0,0,0-.45-.45,10.217,10.217,0,0,1-3.49-8.07q-.06-4.56-.28-9.1a4.886,4.886,0,0,0-2.26-3.82,1.923,1.923,0,0,0-.31-.18,5.445,5.445,0,0,0-3.46-.43c-.18.03-.37.07-.55.1-7.75,1.68-15.52,3.3-23.21,5.18-2.99.73-5.97,1.5-8.95,2.29-.13.03-.26.06-.39.1-1.95.51-3.89,1.04-5.83,1.57-.24.06-.49.13-.73.2-2.48.67-4.97,1.35-7.45,2.02a20.56,20.56,0,0,1-2.45.53,8,8,0,0,1-1.28.08c-.11,0-.23,0-.35-.01l-.42-.03a5.432,5.432,0,0,1-3.96-2.24,5.534,5.534,0,0,1-.53-.74,20.779,20.779,0,0,1-2.09-4.42,7.31,7.31,0,0,1-.25-1,6.451,6.451,0,0,1-.08-.97,4.772,4.772,0,0,1,.06-.76,5.711,5.711,0,0,1,1.51-3.06,6.092,6.092,0,0,0,.85-1.19,5.32,5.32,0,0,0,.46-1.04c.03-.11.07-.21.1-.32a12.551,12.551,0,0,0-.62-9.77.219.219,0,0,0-.03-.05c-.15-.25-.31-.5-.48-.74a8.513,8.513,0,0,1-.62-1l-.18-.24a3.059,3.059,0,0,1-.7-1.49,12.736,12.736,0,0,1,1.17-7.34,4.969,4.969,0,0,1,1.13-1.59,3.392,3.392,0,0,1,.34-.23,2.88,2.88,0,0,1,.31-.13,1.209,1.209,0,0,1,.18-.05,3.68,3.68,0,0,1,1.25-.02.019.019,0,0,0,.03,0c.24.03.5.08.78.14,1.48.32,2.96.64,4.44.97.332.07.665.151,1.007.221.68.14,1.361.277,2.037.435.465.109.931.193,1.4.294,8.23,1.64,16.44,3.5,24.74,4.78.02,0,.05.01.07.01a43.553,43.553,0,0,0,5.6.41c2.57.05,5.15-.04,7.71-.01,1.22.01,2.44-.01,3.65-.05.4-.02.79-.03,1.19-.06.8-.05,1.6-.1,2.39-.17a1.889,1.889,0,0,0,1.82-2.11c0-.32.01-.63.03-.95-.01-1.31-.01-2.63-.04-3.94a2.3,2.3,0,0,0-.03-.26,6.4,6.4,0,0,1,.18-3.07,3.984,3.984,0,0,1,1.75-2.38.138.138,0,0,1,.04-.03,8.5,8.5,0,0,1,1.58-.91,3.941,3.941,0,0,0,.86-.52,2.018,2.018,0,0,0,.27-.24,1.061,1.061,0,0,0,.15-.15,1.475,1.475,0,0,0,.26-.3,4.331,4.331,0,0,0,.82-1.9,80.914,80.914,0,0,0,.95-21.08v-.06c-.01-.16-.03-.31-.05-.47l-.06-.54a7.262,7.262,0,0,0-1.76-4.11.943.943,0,0,0-.1-.1,5.769,5.769,0,0,0-.74-.64c-.02-.02-.05-.04-.07-.06l-.09-.06a3.882,3.882,0,0,1-1.8-2.95,24.244,24.244,0,0,1-.1-3.71,3.225,3.225,0,0,1,1.83-2.79,4.276,4.276,0,0,1,.43-.19,4.976,4.976,0,0,1,.55-.16h.02q.21-.045.39-.09c.11-.03.21-.05.31-.08,1.49-.43,1.85-1.11,1.92-2.99l.03-.72c.09-3.58.19-7.16.28-10.75v-.05c.13-6.36.25-12.71.44-19.06v-.13c0-.98-.01-1.95-.05-2.92a10.377,10.377,0,0,0-2.22-5.72c-.14-.14-.29-.28-.44-.42a5.09,5.09,0,0,1,.63-8.28,5.657,5.657,0,0,0,1.45-1.23c.05-.06.1-.13.15-.2a5.285,5.285,0,0,0,.61-1.12,1.9,1.9,0,0,0,.14-.4,4.752,4.752,0,0,0,.2-1.27c.25-6.71.46-13.41.73-20.11a6.907,6.907,0,0,0-1.45-4.46c-.33-.45-.649-.9-.959-1.369a4.789,4.789,0,0,1,.722-5.993,4.988,4.988,0,0,0,1.187-1.918c.02-.07.04-.15.06-.22.04-.13.07-.26.1-.39a6.414,6.414,0,0,0,.09-1.09c-.02-1.72-.08-3.44-.08-5.16a3.029,3.029,0,0,1,1.15-2.81,1.9,1.9,0,0,1,.33-.22c.04-.02.08-.05.13-.07a6.431,6.431,0,0,1,.74-.35,5.007,5.007,0,0,0,1.82-1.21,1.632,1.632,0,0,0,.17-.2,3.26,3.26,0,0,0,.72-1.7,10.918,10.918,0,0,0-.2-4.03c-.02-.1-.05-.2-.08-.3s-.061-.186-.091-.279c-.17-.526-.444-1.387-.618-1.911-.083-.251-.17-.5-.261-.75-.21-.65-.44-1.3-.68-1.94s-.47-1.29-.73-1.92c-.05-.14-.1-.27-.16-.41-.29-.72-.58-1.44-.89-2.16-.74-1.66-1.56-3.29-2.34-4.931-.145-.3-.3-.6-.466-.9a19.61,19.61,0,0,1-2.494-12.063c.01-.15.03-.3.05-.44a17.608,17.608,0,0,1,.86-3.75c.03-.09.06-.18.09-.26a18.559,18.559,0,0,1,.98-2.38c.21-.41.42-.8.66-1.19.11-.19.22-.37.34-.54.17-.27.36-.54.56-.8a12.76,12.76,0,0,1,.98-1.22c.1-.11.2-.22.3-.32a14.008,14.008,0,0,1,1.49-1.39,16.872,16.872,0,0,1,2.48-1.73c.25-.15.51-.29.77-.43a18.519,18.519,0,0,1,18.55,0c.26.14.52.28.78.43a16.872,16.872,0,0,1,2.48,1.73,15.123,15.123,0,0,1,1.49,1.39c.1.1.2.21.3.32a14.141,14.141,0,0,1,.98,1.22c.2.26.39.53.56.8.112.167.215.335.317.5.206.337.408.675.584,1.027a20.383,20.383,0,0,1,1.079,2.581c.03.08.06.17.09.26a17.608,17.608,0,0,1,.86,3.75c0,.03.01.05.01.08.02.12.03.24.04.36a19.613,19.613,0,0,1-2.493,12.062c-.164.295-.322.593-.467.9-.78,1.641-1.6,3.271-2.34,4.931-.31.72-.6,1.44-.89,2.16-.06.14-.11.27-.16.41-.26.63-.5,1.27-.73,1.92s-.47,1.29-.68,1.94c-.091.248-.178.5-.261.75-.174.524-.448,1.385-.618,1.911-.03.093-.061.188-.091.279s-.06.2-.08.3a10.918,10.918,0,0,0-.2,4.03,3.26,3.26,0,0,0,.72,1.7,1.632,1.632,0,0,0,.17.2,5.007,5.007,0,0,0,1.82,1.21,6.431,6.431,0,0,1,.74.35c.05.02.09.05.13.07a1.9,1.9,0,0,1,.33.22,3.029,3.029,0,0,1,1.15,2.81c0,1.72-.06,3.44-.08,5.16a6.414,6.414,0,0,0,.09,1.09c.03.13.06.26.1.39.02.07.04.15.06.22a4.977,4.977,0,0,0,1.187,1.917,4.791,4.791,0,0,1,.722,5.994c-.31.47-.629.919-.959,1.369a6.907,6.907,0,0,0-1.45,4.46c.27,6.7.48,13.4.73,20.11a4.752,4.752,0,0,0,.2,1.27,1.9,1.9,0,0,0,.14.4,5.285,5.285,0,0,0,.61,1.12,1.3,1.3,0,0,0,.15.2,5.657,5.657,0,0,0,1.45,1.23,5.09,5.09,0,0,1,.63,8.28c-.15.14-.3.28-.44.42a10.377,10.377,0,0,0-2.22,5.72c-.04.97-.05,1.94-.05,2.92v.13c.19,6.35.31,12.7.44,19.06v.05c.09,3.59.19,7.17.28,10.75l.03.72c.07,1.88.43,2.56,1.92,2.99.1.03.2.05.31.08.13.03.27.06.41.09a4.976,4.976,0,0,1,.55.16,4.276,4.276,0,0,1,.43.19,3.225,3.225,0,0,1,1.83,2.79,24.244,24.244,0,0,1-.1,3.71,3.882,3.882,0,0,1-1.8,2.95l-.09.06a.417.417,0,0,1-.08.06,6.552,6.552,0,0,0-.73.64.943.943,0,0,1-.1.1,7.262,7.262,0,0,0-1.76,4.11c-.02.17-.04.35-.06.53v.01c-.02.16-.04.31-.05.47v.06a80.914,80.914,0,0,0,.95,21.08,4.331,4.331,0,0,0,.82,1.9,1.475,1.475,0,0,0,.26.3.536.536,0,0,0,.15.15,2.018,2.018,0,0,0,.27.24,3.941,3.941,0,0,0,.86.52,8.5,8.5,0,0,1,1.58.91.138.138,0,0,0,.04.03,3.984,3.984,0,0,1,1.75,2.38,6.4,6.4,0,0,1,.18,3.07,2.3,2.3,0,0,0-.03.26c-.03,1.31-.03,2.63-.04,3.94.02.32.03.63.03.95a1.889,1.889,0,0,0,1.82,2.11c.79.07,1.59.12,2.39.17l1.19.06c1.21.04,2.43.06,3.65.05,2.56-.03,5.14.06,7.71.01a43.553,43.553,0,0,0,5.6-.41.2.2,0,0,0,.07-.01c8.3-1.28,16.51-3.14,24.74-4.78.433-.094.867-.174,1.3-.272.7-.158,1.4-.3,2.094-.448.346-.073.69-.157,1.046-.23,1.48-.33,2.96-.65,4.44-.97.28-.06.54-.11.78-.14a.019.019,0,0,0,.03,0,3.68,3.68,0,0,1,1.25.02c.05.02.12.03.18.05a2.88,2.88,0,0,1,.31.13,3.392,3.392,0,0,1,.34.23,4.969,4.969,0,0,1,1.13,1.59,12.736,12.736,0,0,1,1.17,7.34,3.059,3.059,0,0,1-.7,1.49l-.18.24a8.513,8.513,0,0,1-.62,1c-.17.24-.33.49-.48.74a.219.219,0,0,0-.03.05,12.551,12.551,0,0,0-.62,9.77c.03.11.07.21.1.32a5.32,5.32,0,0,0,.46,1.04,6.092,6.092,0,0,0,.85,1.19,5.711,5.711,0,0,1,1.51,3.06A4.772,4.772,0,0,1,606.5,415.84Z" transform="translate(-435.3 -188.875)" fill="#fff"/>
  <path d="M435.36,415.08a4.772,4.772,0,0,0-.06.76v-.66C435.32,415.15,435.34,415.11,435.36,415.08Z" transform="translate(-435.3 -188.875)" fill="#2e3192"/>
  <path d="M438.28,409.47c-.03.11-.07.21-.1.32a5.32,5.32,0,0,1-.46,1.04A14.418,14.418,0,0,0,438.28,409.47Z" transform="translate(-435.3 -188.875)" fill="#2e3192"/>
  <path d="M480.13,394.08a43.553,43.553,0,0,1-5.6-.41Q477.32,393.955,480.13,394.08Z" transform="translate(-435.3 -188.875)" fill="#2e3192"/>
  <path d="M503.71,355.89v.06c-.01-.18-.03-.36-.05-.53C503.68,355.58,503.7,355.73,503.71,355.89Z" transform="translate(-435.3 -188.875)" fill="#2e3192"/>
  <polygon points="86.29 622.405 85.95 623.845 85.6 625.275 85.94 623.845 86.29 622.405" fill="#2e3192"/>
</svg>
